<?xml version="1.0" standalone="no"?>
<!DOCTYPE svg PUBLIC "-//W3C//DTD SVG 20010904//EN"
 "http://www.w3.org/TR/2001/REC-SVG-20010904/DTD/svg10.dtd">
<svg version="1.0" xmlns="http://www.w3.org/2000/svg"
 width="512.000000pt" height="512.000000pt" viewBox="0 0 512.000000 512.000000"
 preserveAspectRatio="xMidYMid meet">
<metadata>
Created by potrace 1.14, written by Peter Selinger 2001-2017
</metadata>
<g transform="translate(0.000000,512.000000) scale(0.100000,-0.100000)"
fill="#000000" stroke="none">
<path d="M3945 4941 c-38 -10 -189 -53 -335 -95 -146 -43 -332 -97 -415 -121
-82 -24 -253 -73 -380 -110 -126 -37 -385 -112 -575 -167 -190 -55 -469 -136
-620 -180 -151 -44 -320 -93 -375 -108 -55 -16 -154 -44 -220 -64 -66 -19
-208 -60 -315 -91 -245 -70 -319 -105 -397 -182 -107 -108 -157 -239 -149
-389 4 -61 22 -134 80 -328 l76 -249 1 -1141 c0 -960 3 -1150 15 -1195 45
-167 178 -300 345 -345 84 -23 3828 -23 3914 -1 156 41 274 147 337 304 l23
56 0 1200 0 1200 -24 34 c-13 18 -43 42 -65 51 -39 17 -128 18 -1634 17 -876
0 -1595 2 -1597 5 -3 3 27 15 67 26 40 11 177 50 303 87 127 37 244 71 260 75
17 4 172 49 345 100 412 120 1097 320 1135 330 31 9 119 34 195 56 205 59 377
109 500 144 191 55 240 93 240 187 0 45 -162 588 -196 656 -51 104 -143 186
-250 227 -80 29 -201 34 -289 11z m173 -309 c33 -10 80 -59 91 -95 5 -18 32
-108 60 -201 29 -92 50 -171 47 -174 -6 -5 -435 -132 -449 -132 -4 0 -23 15
-41 33 -40 40 -297 282 -363 342 -26 24 -45 46 -42 49 4 4 287 88 579 171 50
15 83 16 118 7z m-1014 -329 c28 -26 122 -115 210 -197 87 -83 164 -155 172
-159 26 -15 14 -25 -43 -42 -32 -8 -78 -22 -103 -29 -25 -8 -157 -46 -293 -86
-281 -81 -240 -82 -332 5 -23 22 -101 96 -174 165 -190 179 -193 181 -189 184
5 5 96 32 318 96 118 34 249 72 290 85 41 13 79 24 84 24 5 1 32 -20 60 -46z
m-1084 -294 c19 -17 96 -89 170 -159 74 -70 162 -152 194 -182 l59 -55 -59
-15 c-32 -9 -147 -42 -254 -73 -107 -31 -222 -65 -256 -74 l-61 -18 -64 60
c-35 33 -129 121 -208 196 -79 75 -151 141 -160 148 -11 8 -13 15 -6 22 6 5
89 32 185 60 96 27 227 65 290 84 63 19 120 35 125 36 6 1 26 -13 45 -30z
m-824 -435 c76 -72 166 -156 199 -187 53 -49 58 -57 40 -62 -11 -4 -27 -9 -35
-12 -8 -3 -82 -24 -165 -48 -82 -24 -253 -73 -380 -110 -126 -37 -238 -68
-248 -70 -21 -5 -23 -2 -78 180 -61 203 -60 259 11 332 33 33 43 37 270 103
36 11 94 28 129 38 l64 19 26 -26 c15 -14 90 -85 167 -157z m274 -863 c0 -4
-45 -80 -100 -170 -55 -90 -100 -165 -100 -167 0 -3 -12 -23 -27 -47 -15 -23
-32 -51 -38 -62 -10 -19 -22 -20 -288 -23 l-277 -2 0 239 0 239 415 0 c228 0
415 -3 415 -7z m1120 0 c0 -3 -63 -109 -139 -236 l-139 -230 -371 -3 c-204 -1
-371 0 -371 4 0 3 63 111 140 239 l140 233 370 0 c203 0 370 -3 370 -7z m1120
0 c0 -3 -63 -109 -139 -236 l-139 -230 -371 -3 c-204 -1 -371 1 -371 4 0 3 37
67 83 142 45 75 84 141 87 147 3 6 29 49 57 96 l53 86 370 0 c203 0 370 -2
370 -6z m930 -232 l0 -239 -415 0 c-228 0 -415 3 -415 6 0 3 63 111 140 239
l140 232 275 0 275 0 0 -238z"/>
</g>
</svg>
